<svg xmlns="http://www.w3.org/2000/svg" xmlns:xlink="http://www.w3.org/1999/xlink" width="300" zoomAndPan="magnify" viewBox="0 0 224.87999 74.999997" height="100" preserveAspectRatio="xMidYMid meet" version="1.0"><defs><clipPath id="06c3c53e8d"><path d="M 149.921875 0.0195312 L 224.761719 0.0195312 L 224.761719 74.980469 L 149.921875 74.980469 Z M 149.921875 0.0195312 " clip-rule="nonzero"/></clipPath><clipPath id="d31a06eb3c"><path d="M 187.398438 74.980469 L 149.921875 37.5 L 168.660156 37.5 L 168.660156 0.0195312 L 206.140625 0.0195312 L 206.140625 37.5 L 224.878906 37.5 Z M 187.398438 74.980469 " clip-rule="nonzero"/></clipPath><clipPath id="d67c17ee58"><path d="M 74.960938 0.0195312 L 149.921875 0.0195312 L 149.921875 74.980469 L 74.960938 74.980469 Z M 74.960938 0.0195312 " clip-rule="nonzero"/></clipPath><clipPath id="0451bdae80"><path d="M 112.441406 74.980469 L 74.960938 37.5 L 93.699219 37.5 L 93.699219 0.0195312 L 131.179688 0.0195312 L 131.179688 37.5 L 149.921875 37.5 Z M 112.441406 74.980469 " clip-rule="nonzero"/></clipPath><clipPath id="f865f151f6"><path d="M 0 0.0195312 L 74.960938 0.0195312 L 74.960938 74.980469 L 0 74.980469 Z M 0 0.0195312 " clip-rule="nonzero"/></clipPath><clipPath id="15372b45c0"><path d="M 37.480469 74.980469 L 0 37.5 L 18.738281 37.5 L 18.738281 0.0195312 L 56.21875 0.0195312 L 56.21875 37.5 L 74.960938 37.5 Z M 37.480469 74.980469 " clip-rule="nonzero"/></clipPath></defs><g clip-path="url(#06c3c53e8d)"><g clip-path="url(#d31a06eb3c)"><path fill="#103bfc" d="M 149.921875 0.0195312 L 224.878906 0.0195312 L 224.878906 74.980469 L 149.921875 74.980469 Z M 149.921875 0.0195312 " fill-opacity="1" fill-rule="nonzero"/></g></g><g clip-path="url(#d67c17ee58)"><g clip-path="url(#0451bdae80)"><path fill="#103bfc" d="M 74.960938 0.0195312 L 149.921875 0.0195312 L 149.921875 74.980469 L 74.960938 74.980469 Z M 74.960938 0.0195312 " fill-opacity="1" fill-rule="nonzero"/></g></g><g clip-path="url(#f865f151f6)"><g clip-path="url(#15372b45c0)"><path fill="#103bfc" d="M 0 0.0195312 L 74.960938 0.0195312 L 74.960938 74.980469 L 0 74.980469 Z M 0 0.0195312 " fill-opacity="1" fill-rule="nonzero"/></g></g></svg>