<svg width="202" height="44" viewBox="0 0 202 44" fill="none" xmlns="http://www.w3.org/2000/svg">
<g clip-path="url(#clip0_411_273)">
<path d="M129.079 0H0V44H129.079V0Z" fill="#113BFC"/>
<path d="M20.6191 27.8321C20.6191 26.822 20.4165 26.0264 20.0114 25.4453C19.6203 24.8503 19.0614 24.4283 18.335 24.1792C17.6226 23.9302 16.7844 23.8057 15.8205 23.8057H12.9917V31.5679H15.5272C16.1977 31.5679 16.8333 31.5195 17.434 31.4226C18.0487 31.3258 18.5935 31.1459 19.0684 30.883C19.5574 30.6201 19.9346 30.2466 20.2 29.7623C20.4794 29.2641 20.6191 28.6208 20.6191 27.8321ZM19.5294 15.7943C19.5294 14.6598 19.1662 13.8434 18.4398 13.3453C17.7274 12.8333 16.6168 12.5774 15.1081 12.5774H12.9917V19.2396H15.3176C16.7984 19.2396 17.867 18.9698 18.5236 18.4302C19.1942 17.8906 19.5294 17.0119 19.5294 15.7943ZM27.7016 28.1019C27.7016 29.7623 27.3803 31.139 26.7377 32.2321C26.0952 33.3251 25.2151 34.183 24.0975 34.8057C22.9799 35.4283 21.7017 35.8711 20.2628 36.134C18.8379 36.3968 17.3362 36.5283 15.7577 36.5283H6.11865V7.76226H15.3176C16.8124 7.76226 18.2233 7.88679 19.5504 8.13585C20.8915 8.37108 22.0789 8.77231 23.1126 9.33962C24.1464 9.89307 24.9566 10.6472 25.5433 11.6019C26.144 12.5428 26.4444 13.7119 26.4444 15.1094C26.4444 16.2579 26.1999 17.2541 25.711 18.0981C25.222 18.9283 24.5724 19.6132 23.7622 20.1528C22.952 20.6786 22.0719 21.0591 21.122 21.2943C22.1557 21.4604 23.1755 21.7855 24.1813 22.2698C25.2011 22.7402 26.0392 23.4459 26.6958 24.3868C27.3664 25.3277 27.7016 26.566 27.7016 28.1019ZM50.5675 30.1774C50.5675 31.0075 50.6794 31.6094 50.9027 31.983C51.1403 32.3566 51.5175 32.6402 52.0343 32.834L50.6722 37.1509C49.3592 37.0264 48.2486 36.7428 47.3405 36.3C46.4466 35.8434 45.7408 35.1585 45.2241 34.2453C44.3721 35.2553 43.2825 36.0094 41.9552 36.5075C40.6281 36.9918 39.273 37.234 37.89 37.234C35.599 37.234 33.769 36.5906 32.4 35.3038C31.0449 34.0032 30.3674 32.3358 30.3674 30.3019C30.3674 27.9082 31.3104 26.061 33.1963 24.7604C35.0961 23.4598 37.7643 22.8094 41.2008 22.8094H44.1973V21.9792C44.1973 20.8308 43.8202 19.9799 43.0658 19.4264C42.3253 18.873 41.2358 18.5962 39.7969 18.5962C39.0844 18.5962 38.1694 18.7 37.0519 18.9075C35.9343 19.1013 34.8167 19.3849 33.6992 19.7585L32.1695 15.4C33.6084 14.8604 35.1031 14.4522 36.6537 14.1755C38.2183 13.8987 39.6153 13.7604 40.8446 13.7604C44.1554 13.7604 46.6 14.4315 48.1787 15.7736C49.7712 17.1019 50.5675 19.0251 50.5675 21.5434V30.1774ZM40.1741 32.5434C40.8865 32.5434 41.6339 32.3358 42.4162 31.9208C43.1986 31.4918 43.7921 30.8899 44.1973 30.1151V26.5453H42.5629C40.7189 26.5453 39.3638 26.8289 38.4977 27.3962C37.6316 27.9497 37.1985 28.766 37.1985 29.8453C37.1985 30.6893 37.457 31.3534 37.9738 31.8377C38.5047 32.3082 39.2381 32.5434 40.1741 32.5434ZM65.8897 32.5434C66.9932 32.5434 67.8804 32.3704 68.5509 32.0245C69.2353 31.6786 69.5777 31.1598 69.5777 30.4679C69.5777 29.9975 69.4448 29.6032 69.1795 29.2849C68.9142 28.9667 68.4042 28.6623 67.6499 28.3717C66.8955 28.0811 65.7778 27.7352 64.2972 27.334C62.9423 26.9742 61.7407 26.5176 60.693 25.9641C59.6591 25.4107 58.849 24.6981 58.2623 23.8264C57.6894 22.9547 57.4032 21.8685 57.4032 20.5679C57.4032 19.2534 57.7732 18.0843 58.5138 17.0604C59.2543 16.0365 60.3439 15.234 61.7826 14.6528C63.2214 14.0579 64.9815 13.7604 67.0631 13.7604C69.0467 13.7604 70.7721 14.0164 72.2389 14.5283C73.7195 15.0264 74.9977 15.6629 76.0735 16.4377L73.4333 20.2981C72.5113 19.7308 71.5193 19.2811 70.4577 18.9491C69.3962 18.6032 68.3275 18.4302 67.2517 18.4302C66.1759 18.4302 65.373 18.5755 64.842 18.866C64.3252 19.1428 64.0667 19.5648 64.0667 20.1321C64.0667 20.5057 64.1995 20.8308 64.4648 21.1075C64.7443 21.3704 65.2611 21.6472 66.0154 21.9377C66.7698 22.2145 67.8732 22.5604 69.3262 22.9755C70.7649 23.3767 72.0155 23.8402 73.077 24.366C74.1528 24.8918 74.9839 25.5975 75.5706 26.483C76.1573 27.3547 76.4507 28.51 76.4507 29.9491C76.4507 31.5541 75.9687 32.9032 75.0048 33.9962C74.0409 35.0755 72.7627 35.8849 71.1702 36.4245C69.5777 36.9641 67.8313 37.234 65.9316 37.234C63.7804 37.234 61.8803 36.9296 60.232 36.3208C58.5838 35.7119 57.1798 34.9094 56.0202 33.9132L59.3519 30.2189C60.2182 30.883 61.1959 31.4365 62.2855 31.8792C63.389 32.322 64.5905 32.5434 65.8897 32.5434ZM87.8335 27.417C87.9869 28.6208 88.3012 29.5962 88.7765 30.3434C89.2651 31.0767 89.887 31.6164 90.6414 31.9623C91.3958 32.2943 92.2406 32.4604 93.1769 32.4604C94.1965 32.4604 95.1814 32.2943 96.1314 31.9623C97.0811 31.6302 97.9964 31.1874 98.8765 30.634L101.538 34.2038C100.49 35.0893 99.2184 35.8157 97.724 36.383C96.2429 36.9503 94.5527 37.234 92.653 37.234C90.1104 37.234 87.9802 36.7358 86.2619 35.7396C84.5437 34.7296 83.2512 33.3459 82.3854 31.5887C81.5191 29.8315 81.0862 27.8113 81.0862 25.5283C81.0862 23.356 81.5053 21.3843 82.3435 19.6132C83.1816 17.8283 84.4037 16.41 86.0105 15.3585C87.6307 14.2931 89.6075 13.7604 91.9406 13.7604C94.0637 13.7604 95.9009 14.21 97.4516 15.1094C99.016 16.0088 100.224 17.3025 101.077 18.9906C101.943 20.6786 102.376 22.7057 102.376 25.0717C102.376 25.4453 102.362 25.8466 102.334 26.2755C102.32 26.7044 102.292 27.0849 102.25 27.417H87.8335ZM91.9406 18.1604C90.7529 18.1604 89.7961 18.5824 89.0698 19.4264C88.3431 20.2704 87.9031 21.6195 87.7497 23.4736H95.9219C95.9076 21.8685 95.5933 20.5817 94.979 19.6132C94.3642 18.6447 93.3512 18.1604 91.9406 18.1604ZM119.877 5.0434L126.499 5.7283V36.5283H120.632L120.296 34.1C119.682 34.9579 118.864 35.6981 117.845 36.3208C116.825 36.9296 115.588 37.234 114.136 37.234C112.292 37.234 110.762 36.7428 109.547 35.7604C108.345 34.778 107.444 33.4082 106.844 31.6509C106.257 29.8799 105.964 27.8113 105.964 25.4453C105.964 23.1761 106.32 21.1629 107.032 19.4057C107.745 17.6484 108.764 16.2717 110.092 15.2755C111.418 14.2654 112.997 13.7604 114.827 13.7604C115.819 13.7604 116.741 13.9333 117.593 14.2792C118.445 14.6251 119.207 15.1302 119.877 15.7943V5.0434ZM116.608 18.5547C115.463 18.5547 114.541 19.0943 113.842 20.1736C113.144 21.239 112.795 23.01 112.795 25.4868C112.795 27.2994 112.941 28.7107 113.235 29.7208C113.528 30.717 113.933 31.4157 114.45 31.817C114.967 32.2183 115.561 32.4189 116.231 32.4189C116.971 32.4189 117.642 32.1906 118.243 31.734C118.857 31.2774 119.402 30.6547 119.877 29.866V20.3604C119.416 19.7931 118.927 19.3503 118.411 19.0321C117.893 18.7138 117.293 18.5547 116.608 18.5547Z" fill="white"/>
<path d="M146.494 17.1434C146.494 16.1195 146.298 15.2755 145.907 14.6113C145.53 13.9333 144.95 13.4352 144.168 13.117C143.4 12.7849 142.429 12.6189 141.256 12.6189H138.909V22.0208H141.612C142.631 22.0208 143.504 21.8478 144.231 21.5019C144.957 21.156 145.516 20.6233 145.907 19.9038C146.298 19.1843 146.494 18.2641 146.494 17.1434ZM153.577 17.1226C153.577 19.3503 153.095 21.1906 152.131 22.6434C151.167 24.0962 149.819 25.1824 148.087 25.9019C146.354 26.6075 144.343 26.9604 142.052 26.9604H138.909V36.5283H132.036V7.76226H141.172C145.111 7.76226 148.163 8.53712 150.329 10.0868C152.494 11.6365 153.577 13.9817 153.577 17.1226ZM176.212 30.1774C176.212 31.0075 176.324 31.6094 176.547 31.983C176.785 32.3566 177.162 32.6402 177.679 32.834L176.317 37.1509C175.003 37.0264 173.893 36.7428 172.985 36.3C172.091 35.8434 171.385 35.1585 170.869 34.2453C170.016 35.2553 168.927 36.0094 167.6 36.5075C166.273 36.9918 164.918 37.234 163.535 37.234C161.244 37.234 159.413 36.5906 158.045 35.3038C156.689 34.0032 156.012 32.3358 156.012 30.3019C156.012 27.9082 156.955 26.061 158.841 24.7604C160.741 23.4598 163.409 22.8094 166.845 22.8094H169.842V21.9792C169.842 20.8308 169.465 19.9799 168.71 19.4264C167.97 18.873 166.88 18.5962 165.441 18.5962C164.729 18.5962 163.814 18.7 162.696 18.9075C161.579 19.1013 160.461 19.3849 159.344 19.7585L157.814 15.4C159.253 14.8604 160.748 14.4522 162.298 14.1755C163.863 13.8987 165.26 13.7604 166.489 13.7604C169.8 13.7604 172.245 14.4315 173.823 15.7736C175.416 17.1019 176.212 19.0251 176.212 21.5434V30.1774ZM165.819 32.5434C166.531 32.5434 167.278 32.3358 168.061 31.9208C168.843 31.4918 169.437 30.8899 169.842 30.1151V26.5453H168.207C166.363 26.5453 165.008 26.8289 164.142 27.3962C163.276 27.9497 162.843 28.766 162.843 29.8453C162.843 30.6893 163.101 31.3534 163.618 31.8377C164.149 32.3082 164.882 32.5434 165.819 32.5434ZM195.264 5.0434L201.886 5.7283V36.5283H196.019L195.683 34.1C195.068 34.9579 194.251 35.6981 193.232 36.3208C192.212 36.9296 190.975 37.234 189.523 37.234C187.679 37.234 186.149 36.7428 184.934 35.7604C183.732 34.778 182.831 33.4082 182.231 31.6509C181.644 29.8799 181.35 27.8113 181.35 25.4453C181.35 23.1761 181.707 21.1629 182.419 19.4057C183.132 17.6484 184.151 16.2717 185.478 15.2755C186.805 14.2654 188.384 13.7604 190.214 13.7604C191.206 13.7604 192.128 13.9333 192.98 14.2792C193.832 14.6251 194.594 15.1302 195.264 15.7943V5.0434ZM191.995 18.5547C190.85 18.5547 189.928 19.0943 189.229 20.1736C188.531 21.239 188.182 23.01 188.182 25.4868C188.182 27.2994 188.328 28.7107 188.622 29.7208C188.915 30.717 189.32 31.4157 189.837 31.817C190.354 32.2183 190.948 32.4189 191.618 32.4189C192.358 32.4189 193.029 32.1906 193.63 31.734C194.244 31.2774 194.789 30.6547 195.264 29.866V20.3604C194.803 19.7931 194.314 19.3503 193.797 19.0321C193.28 18.7138 192.68 18.5547 191.995 18.5547Z" fill="#113BFC"/>
</g>
<defs>
<clipPath id="clip0_411_273">
<rect width="202" height="44" fill="white"/>
</clipPath>
</defs>
</svg>
