<svg xmlns="http://www.w3.org/2000/svg" xmlns:xlink="http://www.w3.org/1999/xlink" width="50" zoomAndPan="magnify" viewBox="0 0 37.5 37.499999" height="50" preserveAspectRatio="xMidYMid meet" version="1.0"><defs><clipPath id="f01fe3043d"><path d="M 0 0 L 37.007812 0 L 37.007812 37.007812 L 0 37.007812 Z M 0 0 " clip-rule="nonzero"/></clipPath><clipPath id="e7fc000d06"><path d="M 1.480469 0 L 35.527344 0 C 35.917969 0 36.296875 0.15625 36.574219 0.433594 C 36.851562 0.710938 37.007812 1.085938 37.007812 1.480469 L 37.007812 35.527344 C 37.007812 35.917969 36.851562 36.296875 36.574219 36.574219 C 36.296875 36.851562 35.917969 37.007812 35.527344 37.007812 L 1.480469 37.007812 C 1.085938 37.007812 0.710938 36.851562 0.433594 36.574219 C 0.15625 36.296875 0 35.917969 0 35.527344 L 0 1.480469 C 0 1.085938 0.15625 0.710938 0.433594 0.433594 C 0.710938 0.15625 1.085938 0 1.480469 0 Z M 1.480469 0 " clip-rule="nonzero"/></clipPath></defs><g clip-path="url(#f01fe3043d)"><g clip-path="url(#e7fc000d06)"><path stroke-linecap="butt" transform="matrix(0.740131, 0, 0, 0.740131, 0.0000005, 0)" fill="none" stroke-linejoin="miter" d="M 2.000277 0 L 48.001395 0 C 48.529172 0 49.041117 0.211111 49.415839 0.585833 C 49.790561 0.960556 50.001673 1.467222 50.001673 2.000278 L 50.001673 48.001395 C 50.001673 48.529173 49.790561 49.041118 49.415839 49.41584 C 49.041117 49.790562 48.529172 50.001673 48.001395 50.001673 L 2.000277 50.001673 C 1.467222 50.001673 0.960555 49.790562 0.585833 49.41584 C 0.21111 49.041118 -0.000000675556 48.529173 -0.000000675556 48.001395 L -0.000000675556 2.000278 C -0.000000675556 1.467222 0.21111 0.960556 0.585833 0.585833 C 0.960555 0.211111 1.467222 0 2.000277 0 Z M 2.000277 0 " stroke="#103bfc" stroke-width="8" stroke-opacity="1" stroke-miterlimit="4"/></g></g><path stroke-linecap="butt" transform="matrix(0.740132, 0, 0, 0.740132, 8.511513, 9.769736)" fill="none" stroke-linejoin="miter" d="M 0.000277888 2.000001 L 27.001391 2.000001 " stroke="#103bfc" stroke-width="4" stroke-opacity="1" stroke-miterlimit="4"/><path stroke-linecap="butt" transform="matrix(0.740132, 0, 0, 0.740132, 8.511513, 17.023025)" fill="none" stroke-linejoin="miter" d="M 0.000277888 2.000835 L 27.001391 2.000835 " stroke="#103bfc" stroke-width="4" stroke-opacity="1" stroke-miterlimit="4"/><path stroke-linecap="butt" transform="matrix(0.740132, 0, 0, 0.740132, 8.511513, 23.832235)" fill="none" stroke-linejoin="miter" d="M 0.000277888 2.000002 L 27.001391 2.000002 " stroke="#103bfc" stroke-width="4" stroke-opacity="1" stroke-miterlimit="4"/></svg>